<mxfile host="app.diagrams.net" modified="2024-06-22T09:30:37.195Z" agent="Mozilla/5.0 (Windows NT 10.0; Win64; x64) AppleWebKit/537.36 (KHTML, like Gecko) Chrome/126.0.0.0 Safari/537.36" version="24.6.1" etag="Bc_A8m9Ac2yqdbLQHkZz" type="github">
  <diagram name="Strona-1" id="0tRhlRXmon0sQhw6xO1j">
    <mxGraphModel>
      <root>
        <mxCell id="0" />
        <mxCell id="1" parent="0" />
      </root>
    </mxGraphModel>
  </diagram>
</mxfile>
